<?xml version="1.0" encoding="utf-8"?>
<!-- Generator: Adobe Illustrator 24.2.1, SVG Export Plug-In . SVG Version: 6.00 Build 0)  -->
<svg version="1.1" id="圖層_1" xmlns="http://www.w3.org/2000/svg" xmlns:xlink="http://www.w3.org/1999/xlink" x="0px" y="0px"
	 viewBox="0 0 32 32" style="enable-background:new 0 0 32 32;" xml:space="preserve">
<style type="text/css">
	.st0{fill:#FFFFFF;}
	.st1{fill-rule:evenodd;clip-rule:evenodd;fill:#FFFFFF;}
</style>
<g id="Layer_2">
	<g id="Layer_1-2">
		<path class="st0" d="M12.77,16.3h1.1v6.64c0,0.15,0.12,0.27,0.27,0.27h2.87c0.15,0,0.27-0.12,0.27-0.27V16.3h1.66
			c0.14,0,0.25-0.11,0.27-0.24l0.25-2.44c0.02-0.15-0.09-0.28-0.24-0.29c-0.01,0-0.02,0-0.03,0h-1.92v-1.17
			c0-0.08,0.01-0.15,0.04-0.22c0.03-0.07,0.08-0.12,0.16-0.15c0.05-0.02,0.09-0.02,0.14-0.02h1.54c0.15,0,0.27-0.12,0.27-0.27V9.14
			c0-0.15-0.12-0.27-0.27-0.27l-2.13-0.01l0,0c-0.54-0.02-1.07,0.1-1.57,0.32c-0.3,0.14-0.57,0.34-0.79,0.58
			c-0.3,0.32-0.51,0.71-0.64,1.14c-0.12,0.37-0.17,0.74-0.17,1.13v1.31h-1.1c-0.15,0-0.27,0.12-0.27,0.27v2.44
			C12.51,16.17,12.62,16.3,12.77,16.3L12.77,16.3z"/>
		<path class="st0" d="M15.98,32c8.84,0.01,16-7.14,16.02-15.98c0.02-8.84-7.15-16-15.98-16.02S0.01,7.15,0,15.98
			c-0.01,4.25,1.68,8.32,4.69,11.33C7.68,30.32,11.75,32,15.98,32z M15.98,1.64c7.95-0.01,14.4,6.44,14.41,14.39
			c0.01,7.95-6.44,14.4-14.39,14.41C8.06,30.43,1.6,24,1.6,16.05c0-3.82,1.51-7.49,4.22-10.2C8.51,3.15,12.17,1.63,15.98,1.64
			L15.98,1.64z"/>
	</g>
</g>
</svg>
