<?xml version="1.0" encoding="utf-8"?>
<!-- Generator: Adobe Illustrator 24.2.1, SVG Export Plug-In . SVG Version: 6.00 Build 0)  -->
<svg version="1.1" id="圖層_1" xmlns="http://www.w3.org/2000/svg" xmlns:xlink="http://www.w3.org/1999/xlink" x="0px" y="0px"
	 viewBox="0 0 32 32" style="enable-background:new 0 0 32 32;" xml:space="preserve">
<style type="text/css">
	.st0{fill:#FFFFFF;}
	.st1{fill-rule:evenodd;clip-rule:evenodd;fill:#FFFFFF;}
</style>
<g id="twitter__x2C__social__x2C__media__x2C__icons_x2C_">
	<g>
		<path class="st1" d="M27.31,4.68C24.42,1.79,20.42,0,16,0c-4.42,0-8.42,1.8-11.31,4.69C1.79,7.58,0,11.58,0,16
			c0,4.41,1.79,8.42,4.69,11.31C7.58,30.21,11.58,32,16,32c4.42,0,8.42-1.8,11.31-4.69C30.21,24.42,32,20.42,32,16
			C32,11.58,30.21,7.58,27.31,4.68z M26.43,26.43c-2.67,2.67-6.35,4.32-10.43,4.32c-4.08,0-7.76-1.66-10.43-4.32
			C2.9,23.77,1.25,20.07,1.25,16c0-4.08,1.65-7.77,4.32-10.44C8.24,2.9,11.92,1.25,16,1.25c4.08,0,7.76,1.65,10.43,4.31
			c2.68,2.67,4.32,6.36,4.32,10.44C30.75,20.07,29.1,23.77,26.43,26.43z"/>
		<path class="st1" d="M23.73,9.71c-0.65,0.38-1.37,0.66-2.13,0.81c-0.6-0.65-1.48-1.05-2.45-1.05c-1.84,0-3.35,1.48-3.35,3.3
			c0,0.27,0.04,0.51,0.1,0.75c-2.79-0.13-5.26-1.44-6.91-3.45c-0.28,0.5-0.46,1.05-0.46,1.66c0,1.15,0.66,2.16,1.54,2.75
			c-0.55-0.01-1.12-0.16-1.46-0.41c0,0.02,0,0.03,0,0.04c0,0.43,0.02,0.82,0.17,1.19c0.41,1.04,1.31,1.82,2.44,2.04
			c-0.29,0.08-0.59,0.12-0.9,0.12c-0.21,0-0.43-0.03-0.64-0.07c0.43,1.31,1.66,2.27,3.12,2.3c-1.15,0.89-2.59,1.41-4.16,1.41
			c-0.28,0-0.53-0.02-0.81-0.04c1.49,0.93,3.25,1.48,5.14,1.48c5.24,0,8.45-3.62,9.29-7.39c0.15-0.67,0.21-1.34,0.21-1.99
			c0-0.14,0-0.29,0-0.43c0.67-0.47,1.24-1.05,1.68-1.71c-0.59,0.26-1.23,0.43-1.91,0.52C22.94,11.12,23.48,10.49,23.73,9.71z"/>
	</g>
</g>
</svg>
