<?xml version="1.0" encoding="utf-8"?>
<!-- Generator: Adobe Illustrator 24.2.1, SVG Export Plug-In . SVG Version: 6.00 Build 0)  -->
<svg version="1.1" id="圖層_1" xmlns="http://www.w3.org/2000/svg" xmlns:xlink="http://www.w3.org/1999/xlink" x="0px" y="0px"
	 viewBox="0 0 32 32" style="enable-background:new 0 0 32 32;" xml:space="preserve">
<style type="text/css">
	.st0{fill:#FFFFFF;}
	.st1{fill-rule:evenodd;clip-rule:evenodd;fill:#FFFFFF;}
</style>
<g id="instagram__x2C__social__x2C__media__x2C_">
	<g>
		<path class="st0" d="M27.31,4.69C24.43,1.79,20.42,0,16,0C11.59,0,7.58,1.79,4.69,4.69C1.79,7.58,0,11.58,0,16
			c0,4.42,1.79,8.42,4.69,11.31C7.58,30.21,11.59,32,16,32c4.42,0,8.43-1.79,11.31-4.69C30.21,24.42,32,20.42,32,16
			C32,11.58,30.21,7.58,27.31,4.69z M26.44,26.44c-2.68,2.67-6.36,4.31-10.44,4.31c-4.07,0-7.76-1.65-10.43-4.31
			C2.91,23.76,1.25,20.08,1.25,16c0-4.08,1.66-7.76,4.32-10.43C8.24,2.91,11.93,1.25,16,1.25c4.08,0,7.76,1.66,10.44,4.32
			c2.67,2.67,4.31,6.35,4.31,10.43C30.75,20.08,29.1,23.76,26.44,26.44z"/>
		<path class="st0" d="M16,10.83c-2.85,0-5.17,2.32-5.17,5.17c0,2.86,2.32,5.17,5.17,5.17c2.86,0,5.17-2.31,5.17-5.17
			C21.17,13.15,18.86,10.83,16,10.83z M16,20.1c-2.26,0-4.09-1.83-4.09-4.1c0-2.26,1.83-4.1,4.09-4.1c2.27,0,4.1,1.84,4.1,4.1
			C20.1,18.27,18.27,20.1,16,20.1z"/>
		<path class="st0" d="M20.23,8h-8.46c-2.08,0-3.84,1.69-3.84,3.78v8.46c0,2.08,1.76,3.57,3.84,3.57h8.46
			c2.09,0,3.84-1.49,3.84-3.57v-8.46C24.07,9.68,22.33,8,20.23,8z M23.14,20.24c0,1.57-1.33,2.63-2.9,2.63h-8.46
			c-1.57,0-2.84-1.07-2.84-2.63v-8.46c0-1.57,1.27-2.84,2.84-2.84h8.46c1.57,0,2.9,1.27,2.9,2.84V20.24z"/>
		<path class="st0" d="M21.08,10.13c-0.46,0-0.83,0.37-0.83,0.83c0,0.46,0.37,0.83,0.83,0.83c0.46,0,0.83-0.37,0.83-0.83
			C21.91,10.5,21.54,10.13,21.08,10.13z"/>
	</g>
</g>
</svg>
